<svg width="24" height="24" viewBox="0 0 24 24" fill="none" xmlns="http://www.w3.org/2000/svg">
<g clip-path="url(#clip0_566_2)">
<path fill-rule="evenodd" clip-rule="evenodd" d="M16.6778 0.0120649C16.5981 -0.0262033 16.5103 0.0295856 16.4818 0.136673C16.4785 0.149351 16.476 0.162444 16.4745 0.175761L16.3034 1.7257L16.3029 1.73251C16.3022 1.7618 16.318 1.78778 16.3401 1.79219C16.3639 1.79693 16.5211 0.12952 16.5211 0.12952L16.5224 0.120984C16.5224 0.120984 16.5918 0.0442839 16.6523 0.0639937C16.7048 0.0810908 16.759 0.182335 16.7481 0.254871C16.7481 0.254871 16.5258 1.73166 16.4978 2.02829C16.4909 2.02631 16.4841 2.02434 16.4772 2.02236C16.4005 2.00028 16.3239 1.97821 16.2485 1.9499L16.2425 1.94779C16.2211 1.94057 16.1724 1.92798 16.1164 1.91353C16.0255 1.89002 15.9155 1.86159 15.8731 1.84342C15.8668 1.84073 15.8607 1.83725 15.8545 1.83376C15.8446 1.82813 15.8347 1.82252 15.8243 1.82035C15.7512 1.80499 15.6782 1.78914 15.6051 1.77329C15.416 1.73224 15.2267 1.69115 15.0367 1.6588C14.7053 1.60234 14.3721 1.57489 14.0378 1.61275C13.9672 1.62075 13.8897 1.70279 13.8893 1.7785C13.8882 1.96488 13.8995 2.04741 13.9883 2.07908C14.0539 2.1025 14.0821 2.17317 14.0843 2.23643C14.0916 2.45033 14.0942 2.66637 14.0795 2.87921C14.0698 3.02062 14.0471 3.16051 14.0245 3.30029C14.0163 3.35089 14.008 3.40171 14.0005 3.45234C13.9884 3.53292 13.9768 3.61366 13.9652 3.6944C13.9321 3.92442 13.8989 4.15482 13.8556 4.38133C13.8237 4.54882 13.7685 4.71194 13.7065 4.86442C13.6662 4.96368 13.614 5.0543 13.5618 5.14485C13.5417 5.1799 13.5215 5.21493 13.502 5.25046C13.4884 5.2752 13.4736 5.29895 13.4588 5.32268C13.4321 5.36529 13.4055 5.40783 13.3865 5.45585C13.3495 5.54908 13.3794 5.60695 13.4605 5.60059C13.5272 5.59537 13.5937 5.58627 13.6602 5.57717C13.758 5.56379 13.8558 5.55041 13.9536 5.5494L14.046 5.54842C14.4942 5.54365 14.9427 5.53886 15.3903 5.5611C15.5997 5.5715 15.8144 5.5891 16.018 5.68596C16.0671 5.70934 16.1199 5.71951 16.1725 5.72965C16.1906 5.73315 16.2088 5.73664 16.2267 5.74068C16.3211 5.76187 16.3766 5.82378 16.366 5.90584C16.3582 5.96631 16.3486 6.02636 16.3391 6.08642C16.332 6.13073 16.3249 6.17515 16.3185 6.21964C16.317 6.23064 16.3154 6.24165 16.3138 6.25259C16.3108 6.27349 16.3078 6.29439 16.3047 6.31528C16.2854 6.44886 16.266 6.58243 16.2511 6.71694L16.25 6.72595C16.2418 6.78654 16.2239 6.79573 16.1793 6.7801L16.133 6.7647C16.0711 6.74509 16.0085 6.729 15.9459 6.71454L15.9351 6.71191C15.8119 6.68118 15.7794 6.63136 15.8002 6.50417L15.8182 6.39237C15.8235 6.35854 15.8288 6.32471 15.8342 6.29093C15.8581 6.1381 15.8821 5.98533 15.9105 5.83399C15.9267 5.7473 15.9115 5.70151 15.8505 5.68099C15.7916 5.66122 15.7846 5.7196 15.7791 5.76559C15.7782 5.77319 15.7773 5.78044 15.7762 5.78695L15.7532 5.93353C15.7418 6.00845 15.7308 6.08349 15.7199 6.15859C15.7022 6.27952 15.6845 6.40051 15.665 6.52091C15.6602 6.55076 15.6243 6.59753 15.6081 6.59384C15.4846 6.56557 15.362 6.52834 15.2396 6.49112L15.2371 6.49036C15.1866 6.47502 15.1364 6.4581 15.0862 6.44113C14.9943 6.41017 14.9025 6.3792 14.8094 6.35801C14.5587 6.30106 14.3067 6.25359 14.0545 6.20998C14.031 6.20588 14.0075 6.20179 13.984 6.19775C13.7379 6.15496 13.4915 6.11217 13.2442 6.08788C13.043 6.0681 12.8398 6.07541 12.6379 6.08612C12.5872 6.08882 12.5268 6.13652 12.4908 6.1885C12.4158 6.29643 12.4289 6.43832 12.4555 6.56557C12.4997 6.77694 12.6669 6.8422 12.7882 6.70219L12.7929 6.69686C12.8269 6.65975 12.8472 6.66186 12.8562 6.72437L12.8681 6.80544C12.8765 6.86134 12.885 6.91718 12.8936 6.97308C12.9265 7.1872 12.9594 7.40137 12.9792 7.61765C13.0083 7.93619 13.0253 8.25678 13.0423 8.57719L13.0424 8.5786C13.0464 8.65329 13.0504 8.72798 13.0545 8.80261C13.0888 9.424 12.9919 10.0214 12.8688 10.6145C12.8423 10.7424 12.8216 10.8727 12.8022 11.0032L12.7829 11.1338C12.767 11.2415 12.7336 11.2777 12.6557 11.2737C12.6294 11.2724 12.6031 11.2705 12.5767 11.2686C12.4829 11.262 12.3885 11.2553 12.2968 11.2718C12.2626 11.2779 12.2285 11.284 12.1943 11.2902C11.8415 11.3533 11.4882 11.4166 11.1396 11.5099C10.732 11.6189 10.3402 11.8034 9.96703 12.0559C9.75723 12.1979 9.56887 12.3791 9.39478 12.5873C9.1937 12.8277 9.07836 13.1363 9.04104 13.4906C9.01332 13.7539 8.99785 14.0206 8.99209 14.2864L8.99131 14.3169C8.98861 14.403 8.97923 14.4434 8.89515 14.4712C8.5745 14.5775 8.25525 14.6952 7.94118 14.832C7.71909 14.9287 7.5024 15.0525 7.29034 15.1845C7.0992 15.3035 6.91237 15.4388 6.7333 15.5879C6.56762 15.7258 6.40472 15.8763 6.25896 16.0492C6.10011 16.2376 5.95461 16.4492 5.81761 16.667C5.77563 16.7338 5.74215 16.8185 5.71709 16.9031C5.53018 16.9473 5.34675 17.0219 5.17378 17.1223C4.60624 17.4516 4.13829 18.0298 3.73929 18.6623C3.52031 19.0094 3.3189 19.3752 3.11746 19.7411C2.9519 20.0417 2.78631 20.3425 2.61093 20.6329C2.22217 21.2767 1.77549 21.8789 1.22497 22.2564C0.840637 22.5199 0.418319 22.6656 0 22.8092C0.837843 22.9303 1.6622 22.4163 2.33131 21.731C2.71155 21.3415 3.05605 20.896 3.40071 20.4503C3.66254 20.1116 3.92446 19.773 4.2022 19.4586C4.31378 19.3323 4.45189 19.2021 4.59356 19.2501C4.51998 19.7603 4.50572 20.2921 4.59835 20.7967C4.69094 21.3013 4.89625 21.7776 5.20582 22.0914C4.92153 21.6333 4.73252 21.0705 4.66522 20.482C4.62499 20.1301 4.62869 19.762 4.72088 19.4281C4.81312 19.0942 5.0023 18.798 5.25251 18.6769C5.20033 19.2604 5.18359 19.8565 5.27278 20.432C5.36201 21.0074 5.56452 21.5644 5.89581 21.9503C5.43306 21.1733 5.23049 20.129 5.35242 19.149C5.37229 18.9892 5.40189 18.8264 5.47299 18.6953C5.54412 18.5641 5.6653 18.4706 5.78465 18.4983C5.44125 19.4967 5.6993 20.7985 6.36741 21.4381C5.95335 20.8866 5.71221 20.0996 5.74708 19.3194C5.75833 19.0669 5.80117 18.8059 5.92166 18.611C6.04214 18.4161 6.25617 18.3086 6.428 18.414C6.18664 18.8293 6.17308 19.4045 6.22639 19.9257C6.27334 20.3848 6.41409 20.9091 6.74721 21.036C6.32347 20.5691 6.18224 19.6997 6.42294 19.0397C6.5096 18.8021 6.67101 18.5733 6.86834 18.5883C7.00814 18.599 7.12714 18.7313 7.21096 18.8813C7.25032 18.9519 7.28437 19.0274 7.31837 19.1029C7.35673 19.188 7.39509 19.2731 7.44112 19.351C7.63814 18.7758 7.65214 18.0469 7.35817 17.5512C7.25355 17.3748 7.11598 17.2366 6.96747 17.1306C6.77162 16.9907 6.55838 16.9077 6.33925 16.8741C6.34967 16.8635 6.36017 16.8531 6.37063 16.8427C6.70375 16.5113 7.07117 16.2569 7.44134 16.0129C7.65863 15.8698 7.88726 15.7556 8.11497 15.6437C8.31902 15.5434 8.52694 15.4549 8.73648 15.3774C9.11214 15.2384 9.49612 15.1605 9.88486 15.1217C9.96698 15.1135 10.0488 15.1006 10.1307 15.0878C10.218 15.0741 10.3057 15.0602 10.3934 15.0522C10.5124 15.0413 10.6317 15.0341 10.751 15.0268C10.9345 15.0156 11.118 15.0044 11.3005 14.9801C11.5042 14.9528 11.7066 14.9074 11.9089 14.8619C11.9784 14.8464 12.0478 14.8307 12.1172 14.8159C12.2704 14.7832 12.4229 14.7456 12.5797 14.7069L12.6297 14.6946C12.6485 14.6903 12.6664 14.6875 12.6837 14.6848C12.7082 14.681 12.7315 14.6773 12.7541 14.6701C12.8127 14.6515 12.8712 14.6331 12.9298 14.6146C13.1634 14.5409 13.398 14.4668 13.6306 14.3871C13.8946 14.2966 14.1574 14.1992 14.4191 14.0971C14.5245 14.0561 14.6291 14.0113 14.7337 13.9666C14.8596 13.9127 14.9855 13.8587 15.1127 13.8113C15.3529 13.7218 15.5573 13.5459 15.7593 13.3611C15.7732 13.3484 15.788 13.311 15.7835 13.2942C15.7761 13.2663 15.7551 13.2299 15.7365 13.226C15.7073 13.22 15.6676 13.225 15.6458 13.2481C15.4062 13.5002 15.127 13.6444 14.8414 13.7577C14.3554 13.9504 13.8667 14.1331 13.3747 14.296C13.0656 14.3982 12.7528 14.4802 12.44 14.5621C12.3538 14.5847 12.2672 14.6074 12.1811 14.6304C12.0284 14.6712 11.874 14.7009 11.7199 14.7306L11.6978 14.7349C11.6466 14.7447 11.5954 14.7551 11.5442 14.7654C11.3788 14.7989 11.2134 14.8323 11.0471 14.8493C10.8831 14.866 10.7186 14.8759 10.5542 14.8857C10.3495 14.8979 10.1448 14.9102 9.94096 14.9357C9.52241 14.9882 9.10229 15.0498 8.69751 15.2114C8.37425 15.3404 8.05042 15.4754 7.73932 15.6483C7.48296 15.7908 7.23594 15.9642 6.98926 16.1373C6.93783 16.1734 6.88613 16.2097 6.83465 16.2456C6.58898 16.4164 6.35577 16.616 6.14492 16.857C6.05173 16.8547 5.95805 16.8608 5.86482 16.8747C5.95077 16.7231 6.04667 16.5817 6.14436 16.4429L6.19083 16.3771C6.47529 15.9761 6.82419 15.697 7.18729 15.4505L7.25346 15.406C7.37883 15.3225 7.50907 15.2523 7.63936 15.1821C7.70379 15.1473 7.76852 15.1125 7.83238 15.0761L7.87876 15.0502C8.23511 14.8548 8.60711 14.7349 8.98255 14.6237C9.43579 14.4895 9.89353 14.3963 10.3522 14.3097L10.6471 14.2547C10.789 14.2282 10.9315 14.2068 11.074 14.1853C11.4179 14.1335 11.7619 14.0817 12.0981 13.9603C12.2379 13.9098 12.378 13.8607 12.518 13.8116C12.6885 13.7517 12.859 13.6919 13.029 13.6296C13.1929 13.5696 13.3568 13.5066 13.5171 13.4313C13.6431 13.3721 13.7672 13.3054 13.8913 13.2387C13.9446 13.2101 13.9978 13.1814 14.0512 13.1534C14.1429 13.1053 14.2349 13.0584 14.3269 13.0115C14.5344 12.9057 14.7419 12.8 14.9448 12.6806C15.2089 12.5251 15.4698 12.3598 15.7307 12.1945C15.8652 12.1092 16 12.0238 16.135 11.9399C16.217 11.8889 16.3004 11.8401 16.386 11.8014C16.5638 11.7208 16.7424 11.6429 16.9209 11.5651C16.9996 11.5308 17.0783 11.4965 17.1568 11.4619L17.2046 11.4411C17.3718 11.3684 17.5411 11.3026 17.7185 11.3119C17.9012 11.3215 18.0803 11.3499 18.2107 11.5673C18.3193 11.7485 18.3761 11.9579 18.422 12.1723L18.4343 12.2309C18.4918 12.5102 18.5363 12.7949 18.5794 13.0792L18.6262 13.3881C18.6806 13.7484 18.7338 14.1091 18.7784 14.4718C18.7989 14.6384 18.8108 14.8069 18.8228 14.9754C18.8333 15.1239 18.8438 15.2727 18.8602 15.4201C18.8711 15.5182 18.8916 15.6144 18.9122 15.7106C18.93 15.7938 18.9477 15.877 18.9593 15.9616C18.9722 16.0557 18.9771 16.1516 18.982 16.2476C18.9853 16.3123 18.9886 16.3771 18.9943 16.4413C19.0045 16.5546 19.0162 16.6675 19.0279 16.7804C19.0464 16.9584 19.0649 17.1368 19.0772 17.3155L19.0806 17.3654C19.1072 17.751 19.1335 18.1333 19.0933 18.5277C19.0643 18.8124 19.0168 19.0893 18.9694 19.3663C18.9526 19.4644 18.9358 19.5624 18.9198 19.6608C18.9175 19.6751 18.9101 19.6879 18.9026 19.7007L18.902 19.7018L18.9001 19.705L18.8986 19.7076C18.8965 19.7113 18.8945 19.715 18.8927 19.7186C18.8926 19.7157 18.8923 19.7126 18.8921 19.7096C18.8919 19.7074 18.8917 19.7052 18.8915 19.7031L18.891 19.6984L18.8906 19.6948C18.8888 19.6776 18.887 19.6603 18.8891 19.644C18.9419 19.2263 18.8996 18.8153 18.8134 18.417C18.7641 18.1887 18.6988 17.9665 18.6334 17.7444C18.6031 17.6414 18.5729 17.5383 18.5442 17.4348C18.5163 17.3342 18.4883 17.2337 18.4602 17.1332C18.3833 16.8581 18.3064 16.583 18.234 16.3058C18.1317 15.914 18.0833 15.5081 18.0957 15.0927L18.096 15.0814C18.1018 14.8734 18.1035 14.3927 18.0716 14.3935C18.0475 14.3941 18.0069 14.4412 18.0033 14.4735C17.9856 14.6337 17.9735 14.7955 17.9674 14.9573C17.9508 15.3888 17.9834 15.8102 18.0807 16.2271L18.092 16.2754C18.1941 16.7132 18.296 17.15 18.444 17.5733C18.4471 17.5842 18.45 17.5949 18.4529 17.6054L18.4936 17.7546C18.5122 17.8225 18.5316 17.89 18.5509 17.9575C18.6294 18.2311 18.7079 18.5044 18.7389 18.8009C18.7774 19.1687 18.8027 19.5305 18.7309 19.8959C18.7218 19.9421 18.7262 19.993 18.7306 20.044C18.7328 20.0694 18.7349 20.0949 18.7355 20.1198L18.7359 20.1319L18.7362 20.1374L18.7364 20.1425C18.7377 20.1682 18.739 20.1945 18.7323 20.2157C18.6644 20.4299 17.6967 22.4581 17.5333 22.7623L17.5182 22.7902C17.5005 22.8239 17.4906 22.8525 17.4864 22.8783C17.1961 23.0678 16.8799 23.1766 16.5666 23.2839C17.2227 23.3785 17.8682 22.9769 18.3921 22.4414C18.6899 22.1371 18.9596 21.789 19.2296 21.4408C19.4346 21.1762 19.6397 20.9116 19.8572 20.6659C19.9445 20.5673 20.0527 20.4656 20.1636 20.5031C20.106 20.9017 20.0949 21.3172 20.1673 21.7115C20.2399 22.1057 20.4006 22.4779 20.643 22.7231C20.4204 22.3651 20.2724 21.9254 20.2197 21.4656C20.1882 21.1906 20.1911 20.9031 20.2633 20.6422C20.3355 20.3813 20.4837 20.1499 20.6796 20.0552C20.6388 20.5112 20.6257 20.9769 20.6955 21.4265C20.7654 21.8761 20.9239 22.3113 21.1833 22.6128C20.821 22.0057 20.6624 21.1898 20.7578 20.4241C20.7734 20.2992 20.7966 20.172 20.8523 20.0696C20.9079 19.9671 21.0029 19.8941 21.0963 19.9157C20.8274 20.6958 21.0295 21.7129 21.5527 22.2126C21.2284 21.7817 21.0396 21.1669 21.0669 20.5572C21.0757 20.3599 21.1092 20.1559 21.2036 20.0037C21.298 19.8515 21.4655 19.7674 21.6001 19.8498C21.4111 20.1743 21.4005 20.6237 21.4422 21.031C21.479 21.3896 21.5892 21.7993 21.8501 21.8984C21.5182 21.5336 21.4077 20.8544 21.5961 20.3387C21.664 20.153 21.7904 19.9743 21.9449 19.986C22.0544 19.9943 22.1476 20.0977 22.2132 20.2149C22.2441 20.27 22.2707 20.329 22.2973 20.388C22.3274 20.4545 22.3574 20.521 22.3934 20.5819C22.5477 20.1325 22.5587 19.5629 22.3285 19.1757C22.2465 19.0378 22.1388 18.9299 22.0225 18.847C21.5952 18.5425 21.0624 18.5833 20.618 18.8406C20.1735 19.0978 19.8071 19.5497 19.4947 20.0438C19.3232 20.315 19.1655 20.6008 19.0078 20.8867C18.8781 21.1216 18.7484 21.3566 18.6111 21.5835C18.3887 21.951 18.1421 22.3011 17.8573 22.5781C17.9126 22.4688 17.9758 22.3464 18.0436 22.2154C18.3737 21.5773 18.8107 20.7323 18.9594 20.1698C19.1925 19.2872 19.2416 18.7163 19.2472 18.5059L19.2489 18.4229C19.2548 18.0908 19.2437 17.7569 19.2246 17.4255C19.214 17.2424 19.1927 17.0606 19.1714 16.8787C19.1578 16.7629 19.1441 16.6465 19.1333 16.5303C19.1242 16.432 19.1182 16.3331 19.1122 16.2341C19.1044 16.1048 19.0966 15.9756 19.0817 15.8478C19.0626 15.6833 19.0381 15.52 19.0137 15.3566C18.9927 15.2157 18.9716 15.0748 18.9539 14.9331C18.9298 14.7398 18.9082 14.5459 18.8867 14.3519C18.8514 14.0341 18.816 13.7163 18.7694 13.4015C18.6974 12.9166 18.6125 12.4331 18.5055 11.9603C18.4197 11.5814 18.2705 11.2599 17.9338 11.1825C17.7461 11.1394 17.5636 11.1355 17.383 11.1963C16.9317 11.3485 16.4879 11.5403 16.0624 11.7909C15.8404 11.9216 15.6206 12.059 15.4007 12.1964C14.9561 12.4743 14.5114 12.7522 14.0486 12.9751C13.9627 13.0164 13.8778 13.061 13.7928 13.1056C13.7132 13.1473 13.6337 13.189 13.5534 13.2281C13.5062 13.2511 13.45 13.2756 13.4041 13.262C13.3216 13.2378 13.24 13.2081 13.1584 13.1783C13.0627 13.1435 12.9671 13.1087 12.8701 13.0826C12.7514 13.0508 12.6306 13.0327 12.5098 13.0146C12.4643 13.0078 12.4183 13.0009 12.3728 12.9934C12.3572 12.9908 12.3411 12.9926 12.325 12.9944C12.3175 12.9952 12.3101 12.9961 12.3027 12.9965C12.3055 12.9856 12.3077 12.9741 12.3099 12.9625C12.3146 12.9376 12.3193 12.9127 12.3302 12.8944C12.4958 12.6155 12.6065 12.2955 12.712 11.9735L12.7395 11.8895C12.7862 11.7461 12.8194 11.5948 12.8526 11.4436C12.8652 11.386 12.8779 11.3283 12.8913 11.2711C12.9122 11.1819 12.9305 11.0912 12.9464 11.0001C12.9605 10.9196 12.9743 10.839 12.988 10.7584L13.07 10.2749C13.0804 10.2145 13.0921 10.1543 13.1039 10.0942C13.1288 9.96736 13.1536 9.84046 13.1648 9.71146C13.2081 9.21258 13.2039 8.71047 13.1678 8.21153C13.1301 7.68912 13.0898 7.16501 12.9797 6.65887L12.9775 6.64845C12.9615 6.56463 12.9889 6.55445 13.0324 6.54807L13.0545 6.54503C13.2259 6.50756 14.1313 6.44224 16.8814 7.44211C19.0176 8.27323 19.6695 8.67009 19.9898 9.11477C20.7158 10.3657 20.8478 14.3936 19.2249 15.4945C19.2296 15.4931 19.2344 15.5007 19.2413 15.5114C19.2816 15.5745 19.391 15.7456 19.9494 14.832C21.0204 13.0792 20.6227 9.47223 20.1839 8.91048C19.8787 8.51983 17.9842 7.59395 16.9963 7.12304L16.5478 6.91033C16.5221 6.89816 16.4951 6.89131 16.468 6.88446C16.4516 6.88031 16.4352 6.87615 16.4191 6.87077C16.3789 6.85742 16.3583 6.83652 16.3703 6.76663C16.4163 6.4975 16.4611 6.2276 16.4939 5.95524C16.5041 5.87101 16.534 5.87646 16.5699 5.886L16.5945 5.89261C16.6519 5.90842 16.7095 5.92697 16.7636 5.95571C17.067 6.11697 17.3695 6.28116 17.6712 6.4478C17.872 6.55861 18.0724 6.67087 18.2702 6.79081C18.4278 6.88639 18.5605 6.80538 18.642 6.64237C18.7515 6.42334 18.8431 6.18545 18.925 5.94506C19.0236 5.65565 19.0757 5.34706 19.1214 5.03548L19.1415 4.89512C19.1947 4.52284 19.1506 4.17367 19.0324 3.84111C18.9811 3.69653 18.9178 3.55955 18.8546 3.4226C18.8283 3.36577 18.8019 3.30863 18.7766 3.25126C18.7663 3.22811 18.757 3.20296 18.7476 3.17775C18.7248 3.11623 18.7019 3.05422 18.665 3.01995C18.5573 2.91993 18.4392 2.83172 18.3166 2.77046C18.0892 2.6568 17.8593 2.5519 17.6295 2.44701C17.5373 2.40497 17.4452 2.36293 17.3533 2.32033C17.3503 2.31892 17.3472 2.31733 17.3442 2.31575C17.3392 2.31308 17.3341 2.3104 17.3289 2.3086C17.2666 2.28705 17.2043 2.26539 17.142 2.24372C16.9757 2.18588 16.8094 2.12804 16.6427 2.0725C16.6105 2.06178 16.5782 2.05186 16.5458 2.04228C16.5465 2.03961 16.5471 2.03684 16.5475 2.03398L16.8054 0.315129L16.807 0.302598C16.8212 0.177353 16.7675 0.0550975 16.6778 0.0120649ZM5.68396 17.2532C5.67319 17.274 5.666 17.274 5.66247 17.2588C5.16908 17.3896 4.71779 17.7509 4.34173 18.1999C3.92904 18.6927 3.59592 19.2896 3.26544 19.882L3.26234 19.8876C2.93083 20.4817 2.59556 21.0798 2.1795 21.571C2.19446 21.6186 2.24851 21.5943 2.27919 21.5629C2.6335 21.1992 2.949 20.7765 3.2647 20.3536C3.47567 20.071 3.68677 19.7882 3.90956 19.5228C4.46575 18.8604 5.13316 18.2897 5.87807 18.2202C6.10918 18.1986 6.34134 18.2262 6.57115 18.2655C6.70972 18.2892 6.84951 18.3178 6.97854 18.3891C7.17796 18.4993 7.34387 18.7129 7.4331 18.9744C7.48532 18.7926 7.51483 18.5936 7.48645 18.4027C7.46178 18.2365 7.39461 18.0861 7.31458 17.9542C7.02575 17.4783 6.56566 17.2295 6.1029 17.2091C6.09759 17.2227 6.09262 17.2367 6.08795 17.2511C6.08059 17.2738 6.05853 17.2879 6.03647 17.3021C6.02627 17.3086 6.01612 17.3151 6.00736 17.3225C6.00378 17.304 5.99811 17.2843 5.99245 17.2646C5.98704 17.2458 5.98159 17.2269 5.97798 17.2091C5.9227 17.2116 5.86765 17.2174 5.81303 17.2264C5.7697 17.2335 5.72668 17.2425 5.68396 17.2532ZM12.6095 6.68094C12.6967 6.72361 12.7665 6.59349 12.7982 6.47637C12.8299 6.35918 12.7725 6.21554 12.6852 6.17293C12.598 6.13026 12.5215 6.21876 12.4898 6.33594C12.458 6.45307 12.5223 6.63833 12.6095 6.68094ZM13.5921 5.37599C13.5849 5.38672 13.5799 5.40026 13.575 5.4138C13.5727 5.42001 13.5705 5.42622 13.568 5.43216C13.5727 5.43242 13.5774 5.43295 13.5821 5.43349C13.5924 5.43465 13.6027 5.43582 13.6127 5.43411C13.6288 5.43136 13.6449 5.42752 13.661 5.42368C13.6845 5.41806 13.708 5.41243 13.7317 5.41024C14.2203 5.36488 14.7089 5.34617 15.199 5.37862C15.5078 5.39908 15.8138 5.44293 16.1128 5.54166C16.3937 5.63442 16.6706 5.75172 16.9455 5.87353C17.098 5.94108 17.2465 6.02507 17.3948 6.10901C17.4247 6.12587 17.4547 6.14284 17.4846 6.15958C17.6451 6.24949 17.8039 6.3449 17.962 6.44224C18.0287 6.48333 18.0937 6.52992 18.1586 6.57646L18.1602 6.57763C18.1702 6.58483 18.1802 6.59197 18.1902 6.59911C18.195 6.60256 18.1997 6.60596 18.2045 6.60935C18.332 6.70002 18.4775 6.67187 18.5467 6.5198C18.6338 6.32845 18.7151 6.13049 18.7837 5.92615C18.904 5.56769 18.9706 5.18649 19.0176 4.79935C19.0417 4.60089 19.0429 4.40011 18.987 4.21293C18.9211 3.99228 18.8444 3.77654 18.7621 3.56592C18.7212 3.4612 18.6683 3.35389 18.6006 3.2821C18.5415 3.2194 18.4652 3.18243 18.3907 3.14848L18.3565 3.13295C17.9525 2.94837 17.5478 2.76625 17.1421 2.58856C16.9959 2.52456 16.8475 2.4675 16.6978 2.42128C16.4655 2.34958 16.2317 2.28529 15.9974 2.22645C15.784 2.17287 15.5697 2.12346 15.3545 2.0854C15.0907 2.03875 14.8258 2.00258 14.5609 1.96853C14.4669 1.95644 14.3719 1.95587 14.2772 1.9553C14.2626 1.9552 14.248 1.95511 14.2334 1.95499L14.2273 1.95467L14.2226 1.95421L14.2189 1.9538C14.1916 1.95074 14.1576 1.94692 14.1725 2.01186L14.1747 2.02053C14.2643 2.35112 14.2385 2.69069 14.2052 3.02527C14.1867 3.21054 14.1576 3.3938 14.1283 3.57713C14.1144 3.66511 14.1003 3.75311 14.0875 3.84136L14.076 3.92307C14.0288 4.27123 13.9519 4.60627 13.8387 4.92517C13.8189 4.98111 13.7931 5.03332 13.7654 5.08961C13.7466 5.12792 13.7268 5.16815 13.7073 5.21271L13.6301 5.32104C13.6173 5.3392 13.6046 5.35748 13.5921 5.37599ZM12.6823 11.567C12.7121 11.4654 12.6905 11.4227 12.6095 11.4234C12.5876 11.4236 12.5657 11.4237 12.5438 11.4237C12.4486 11.4237 12.3531 11.4237 12.2591 11.4391C12.154 11.4563 12.0496 11.4799 11.9451 11.5035C11.857 11.5234 11.7686 11.5433 11.6802 11.5594C11.2725 11.6333 10.8727 11.7492 10.488 11.9488L10.4297 11.9794C10.0709 12.17 9.72959 12.3956 9.44953 12.7734C9.29639 12.98 9.21126 13.2256 9.17269 13.4927C9.14867 13.6594 9.14283 13.8305 9.13699 14.002C9.13328 14.1114 9.12953 14.2208 9.12108 14.3293C9.11458 14.4123 9.13869 14.4056 9.1692 14.397C9.17208 14.3962 9.17513 14.3954 9.17813 14.3946L9.18201 14.3936C9.28345 14.3701 9.38484 14.346 9.48623 14.322C9.69625 14.2722 9.90622 14.2223 10.1168 14.1769C10.2578 14.1465 10.3996 14.1229 10.5415 14.1001L10.7118 14.073C10.7154 14.0724 10.719 14.0719 10.7223 14.0714C10.747 14.0682 10.7618 14.0663 10.7471 14.022L10.7445 14.0148C10.6569 13.7761 10.6819 13.5284 10.7314 13.2884C10.7752 13.0756 10.8359 12.868 10.8998 12.6641C10.9523 12.4961 11.0247 12.3336 11.1471 12.2453C11.3182 12.1217 11.4944 12.0064 11.6759 11.9142C11.9212 11.7895 12.1821 11.7557 12.4414 11.722C12.4552 11.7203 12.469 11.7185 12.4827 11.7166C12.5045 11.7138 12.5283 11.7379 12.5521 11.7619C12.5631 11.7731 12.5741 11.7842 12.585 11.7927C12.577 11.8013 12.5692 11.8101 12.5613 11.819C12.5423 11.8404 12.5233 11.862 12.5022 11.8788C12.4929 11.8862 12.4803 11.8859 12.4674 11.8854C12.4606 11.8853 12.4537 11.885 12.4473 11.886L12.3813 11.8965C12.0301 11.9537 11.684 12.0401 11.3672 12.2687C11.2892 12.3251 11.2047 12.3911 11.1538 12.4832C11.0698 12.635 11.0045 12.8076 10.9436 12.9792C10.9216 13.041 10.9091 13.1086 10.8965 13.1764C10.8898 13.2123 10.8831 13.2483 10.875 13.2835L10.8676 13.3138C10.8226 13.4868 10.8155 13.6627 10.8365 13.841C10.8533 13.9835 10.9154 14.0552 10.994 14.0373C11.0579 14.0227 11.1218 14.0088 11.1857 13.9949C11.2723 13.976 11.3591 13.9571 11.4456 13.9366C11.5113 13.921 11.5772 13.9059 11.6431 13.8909C11.8285 13.8486 12.0141 13.8063 12.1973 13.7506C12.4392 13.677 12.6795 13.5933 12.9198 13.5096C13.0131 13.4771 13.1066 13.4445 13.2 13.4126C13.2081 13.4098 13.2154 13.4032 13.2227 13.3965C13.2261 13.3934 13.2296 13.3902 13.233 13.3875C13.2305 13.3829 13.2282 13.3774 13.2259 13.3719C13.2208 13.3599 13.2157 13.3479 13.2086 13.3451C13.1733 13.3312 13.1371 13.3212 13.101 13.3112L13.0895 13.3079L13.0801 13.3053C13.0403 13.2941 13.0006 13.2819 12.961 13.2696C12.8695 13.2415 12.7778 13.2133 12.6852 13.1974C12.4671 13.1602 12.2477 13.1336 12.0284 13.1133L11.9429 13.1057C11.6582 13.0817 11.3741 13.0751 11.097 13.2082L11.0665 13.2241C11.0308 13.2416 10.9866 13.254 10.9702 13.183C10.9525 13.1065 11.0073 13.0688 11.0542 13.0411C11.0635 13.0356 11.0735 13.0319 11.0835 13.0285L11.0935 13.025C11.387 12.9211 11.6835 12.8978 11.9838 12.9501L12.0172 12.9563C12.0793 12.9682 12.1437 12.9624 12.1838 12.8697C12.2335 12.7548 12.284 12.6405 12.3354 12.5243C12.3952 12.3887 12.4562 12.2506 12.5186 12.1058C12.5347 12.0529 12.551 11.9999 12.5673 11.9471C12.6061 11.8208 12.6452 11.6942 12.6823 11.567ZM16.6598 2.20477C16.4951 2.15299 16.3296 2.10555 16.164 2.05902L16.0399 2.02425C16.0006 2.01329 15.9614 2.00209 15.9222 1.9909C15.7767 1.94937 15.6312 1.90782 15.4844 1.87814C15.2637 1.83351 15.0416 1.79657 14.8191 1.77546C14.6603 1.7604 14.5008 1.75837 14.3414 1.75634C14.2851 1.75562 14.2286 1.75491 14.1724 1.75361C14.1631 1.7534 14.1538 1.76148 14.1444 1.76956C14.14 1.77332 14.1357 1.77708 14.1313 1.78001C14.1358 1.78315 14.1403 1.7871 14.1448 1.79105C14.1545 1.79958 14.1642 1.80812 14.1741 1.8086C14.2099 1.81032 14.2457 1.81028 14.2816 1.81024C14.339 1.81017 14.3964 1.8101 14.4533 1.81728C14.7155 1.85036 14.9773 1.88759 15.2388 1.92939C15.4079 1.95644 15.5768 1.98888 15.7444 2.02892C15.872 2.05938 15.999 2.09419 16.1258 2.12994L16.316 2.18382C16.4855 2.23169 16.655 2.27965 16.8233 2.33381C16.9561 2.37653 17.0879 2.42555 17.2189 2.47748C17.4297 2.56106 17.6404 2.64546 17.8494 2.73695C17.9443 2.77852 18.0381 2.82526 18.1318 2.87199C18.1846 2.89832 18.2374 2.92466 18.2904 2.95008C18.2974 2.95343 18.3059 2.95111 18.3144 2.9488C18.3184 2.94773 18.3223 2.94665 18.3261 2.94615C18.3239 2.9422 18.3219 2.93763 18.3198 2.93306C18.3155 2.92323 18.3111 2.9134 18.3047 2.9098C18.2732 2.89186 18.2418 2.87348 18.2104 2.8551C18.1199 2.80212 18.0293 2.74911 17.9361 2.70657C17.8661 2.67462 17.7941 2.6504 17.7222 2.62617C17.667 2.6076 17.6119 2.58904 17.5576 2.56698C17.4392 2.51891 17.3217 2.46648 17.1977 2.4111C17.154 2.39158 17.1094 2.37168 17.0637 2.35148C17.0221 2.33622 16.9805 2.32045 16.939 2.30468C16.8463 2.26946 16.7535 2.23424 16.6598 2.20477ZM17.3197 14.6663C17.2717 14.7953 17.223 14.9257 17.1737 15.0593C17.1648 15.0832 17.1559 15.1051 17.1474 15.126C17.1347 15.1574 17.1229 15.1865 17.1132 15.2168C17.0743 15.3376 17.036 15.4588 16.9976 15.58C16.9522 15.7233 16.9068 15.867 16.8605 16.0099C16.7981 16.2028 16.7343 16.3952 16.6676 16.5856C16.5684 16.8689 16.4673 17.1511 16.3648 17.4323C16.2773 17.6721 16.1879 17.9107 16.0973 18.1484C15.997 18.4114 15.8958 18.6738 15.7922 18.9345C15.6633 19.259 15.5339 19.5833 15.4004 19.9043C15.3111 20.1192 15.2191 20.3322 15.1271 20.5451C15.0853 20.6418 15.0432 20.7393 15.0017 20.8362C14.9651 20.9216 14.9286 21.0072 14.8921 21.0928C14.8123 21.28 14.7325 21.4673 14.6511 21.6534C14.64 21.6786 14.6291 21.7038 14.6182 21.729C14.6114 21.7448 14.6045 21.7606 14.5977 21.7763C14.5229 21.9492 14.4478 22.123 14.3628 22.2863C14.3092 22.3893 14.2476 22.4846 14.1859 22.5799C14.1463 22.6412 14.1066 22.7026 14.069 22.766C14.0528 22.7933 14.0464 22.8713 14.055 22.8776C14.0574 22.8794 14.06 22.8813 14.0625 22.8833L14.0664 22.8865C14.0929 22.9078 14.1224 22.9315 14.1573 22.8749C14.1925 22.8179 14.2313 22.7644 14.2701 22.7109C14.3263 22.6334 14.3825 22.556 14.4272 22.4678C14.5369 22.252 14.6357 22.026 14.7344 21.8002C14.755 21.7533 14.7759 21.7054 14.7965 21.6585C14.8618 21.5102 14.9255 21.3606 14.9892 21.211L14.9897 21.2098C15.042 21.0869 15.0944 20.9638 15.1477 20.8416C15.1897 20.7449 15.233 20.6492 15.2764 20.5535C15.3204 20.4563 15.3643 20.3592 15.4071 20.2611C15.5005 20.0462 15.5928 19.8303 15.6817 19.612C15.7179 19.523 15.7519 19.4322 15.7857 19.3415C15.8149 19.2635 15.844 19.1853 15.8747 19.1084C15.9131 19.012 15.9526 18.9164 15.9922 18.8207C16.0442 18.6949 16.0964 18.5687 16.1458 18.441C16.1885 18.3308 16.2283 18.2185 16.2681 18.1063C16.301 18.0134 16.334 17.9205 16.3685 17.8288C16.4105 17.7175 16.4537 17.6071 16.4968 17.4968L16.4972 17.4957C16.5576 17.3415 16.618 17.1871 16.6748 17.0306C16.7617 16.7911 16.8423 16.5475 16.9228 16.3039C16.9318 16.2766 16.9409 16.2492 16.95 16.2218C16.9893 16.103 17.0274 15.9834 17.0656 15.8637C17.1049 15.7403 17.1442 15.6168 17.1849 15.4942C17.2725 15.2305 17.3609 14.9674 17.4538 14.707C17.503 14.5688 17.5549 14.4323 17.6067 14.2958C17.6438 14.1979 17.6811 14.0996 17.7174 14.0011C17.7597 13.8859 17.8012 13.77 17.8427 13.6541C17.92 13.438 17.9974 13.2216 18.0806 13.0097C18.0982 12.965 18.1148 12.9196 18.1315 12.8741C18.1937 12.7045 18.2562 12.5338 18.3648 12.4017C18.3865 12.3754 18.3908 12.313 18.3894 12.268C18.3889 12.2508 18.348 12.2196 18.3289 12.2235C18.3031 12.2289 18.2728 12.2551 18.2581 12.2846C18.2136 12.374 18.1709 12.4652 18.1283 12.5563C18.0991 12.6186 18.0699 12.681 18.0402 12.7428C17.861 13.1147 17.7234 13.5147 17.5921 13.9195C17.5548 14.0344 17.513 14.1468 17.4712 14.2591C17.4621 14.2835 17.453 14.3079 17.444 14.3322C17.4029 14.4434 17.3615 14.5543 17.3197 14.6663ZM16.6892 13.6446C16.6498 13.8974 16.6093 14.1431 16.5651 14.3878C16.5483 14.4812 16.5272 14.5733 16.5062 14.6654C16.5018 14.6848 16.4972 14.705 16.4928 14.7243C16.4903 14.7353 16.4878 14.7462 16.4853 14.7572L16.4806 14.7784L16.4765 14.7968L16.4694 14.8286C16.4423 14.95 16.4151 15.0715 16.3842 15.1912C16.2305 15.7866 16.0749 16.3812 15.9193 16.9757C15.889 17.0914 15.8575 17.2065 15.826 17.3216C15.8115 17.3745 15.7971 17.4274 15.7827 17.4803C15.7585 17.5698 15.735 17.6598 15.7115 17.7497C15.6582 17.954 15.6048 18.1583 15.5424 18.3574C15.4706 18.5866 15.3896 18.8106 15.3086 19.0344C15.2802 19.1131 15.2517 19.1917 15.2237 19.2706C15.1533 19.4686 15.0814 19.6657 15.0083 19.862C14.9649 19.9785 14.921 20.0945 14.8771 20.2106C14.811 20.3852 14.7448 20.5601 14.6807 20.736C14.6503 20.8195 14.6224 20.9047 14.5946 20.9899C14.5617 21.0904 14.5289 21.1909 14.4918 21.2886C14.4212 21.4746 14.3437 21.6561 14.2663 21.8374C14.2581 21.8566 14.2499 21.8758 14.2417 21.895C14.1594 22.088 14.0759 22.2802 13.9884 22.4691C13.9477 22.5571 13.8989 22.6391 13.8487 22.718C13.837 22.7363 13.8179 22.7463 13.7988 22.7562C13.7901 22.7608 13.7813 22.7654 13.7733 22.7707C13.7717 22.7575 13.7688 22.7434 13.7658 22.7294C13.7594 22.6988 13.7529 22.6681 13.7607 22.6468C13.806 22.5221 13.8592 22.4023 13.9124 22.2831C13.9453 22.2095 13.9792 22.1367 14.0131 22.064C14.0711 21.9394 14.1291 21.8148 14.1818 21.6862C14.292 21.4175 14.3946 21.1428 14.4962 20.8679C14.5296 20.7776 14.5602 20.6853 14.5908 20.5931C14.6193 20.5073 14.648 20.421 14.6787 20.3366C14.7253 20.2088 14.7739 20.0822 14.8224 19.9556C14.8597 19.8584 14.897 19.7613 14.9334 19.6635C14.9466 19.628 14.9599 19.5926 14.9732 19.5571C15.0346 19.393 15.0962 19.2288 15.1511 19.0607C15.2835 18.6552 15.4118 18.2472 15.5378 17.8379C15.5681 17.7393 15.5945 17.6385 15.621 17.5378C15.6411 17.4611 15.6612 17.3845 15.683 17.3088C15.7009 17.247 15.7209 17.1864 15.741 17.1258C15.7614 17.0644 15.7818 17.0029 15.7998 16.9402C15.8532 16.754 15.904 16.5663 15.9522 16.3775C15.9666 16.3212 15.9784 16.2637 15.9901 16.2062C16.0009 16.1534 16.0117 16.1007 16.0245 16.0489C16.0412 15.9813 16.0597 15.9144 16.0783 15.8475C16.0952 15.7865 16.1122 15.7254 16.1277 15.6637C16.1386 15.6207 16.1495 15.5776 16.1604 15.5346L16.1609 15.5328C16.2121 15.3307 16.2634 15.1286 16.309 14.9242C16.3699 14.6515 16.4308 14.3777 16.4763 14.0999C16.508 13.9064 16.5343 13.7112 16.5607 13.516C16.5849 13.3362 16.6092 13.1562 16.6376 12.9776C16.6803 12.7098 16.7118 12.445 16.6795 12.1704C16.6771 12.1498 16.6984 12.1242 16.7197 12.0986C16.7296 12.0867 16.7395 12.0747 16.747 12.0634C16.7541 12.076 16.7627 12.0883 16.7712 12.1005C16.7897 12.1271 16.8082 12.1537 16.8123 12.1839C16.8425 12.4055 16.829 12.628 16.799 12.8483C16.7854 12.9482 16.7713 13.048 16.7572 13.1481C16.7341 13.3119 16.7109 13.4769 16.6892 13.6446ZM22.4148 19.8148C22.4369 19.964 22.4139 20.1196 22.3732 20.2617C22.3037 20.0573 22.1745 19.8903 22.0192 19.804C21.9187 19.7483 21.8098 19.726 21.7019 19.7074C21.5229 19.6767 21.3421 19.6552 21.1621 19.672C20.5819 19.7263 20.0621 20.1726 19.6288 20.6906C19.4553 20.898 19.2909 21.1192 19.1266 21.3401C18.8807 21.6708 18.635 22.0013 18.359 22.2857C18.3351 22.3103 18.293 22.3292 18.2813 22.2921C18.6054 21.908 18.8665 21.4403 19.1248 20.9758L19.1272 20.9714C19.3846 20.5083 19.644 20.0415 19.9654 19.6561C20.2879 19.2697 20.6813 18.9662 21.1114 18.8949C21.5415 18.8236 22.0088 19.0139 22.2809 19.464C22.3433 19.5672 22.3956 19.6847 22.4148 19.8148ZM12.4888 20.6953C12.4573 21.3967 12.6747 22.1041 13.0479 22.6C12.4457 22.0249 12.2131 20.8547 12.5226 19.9572C12.4151 19.9323 12.3058 20.0164 12.2418 20.1343C12.1777 20.2522 12.151 20.3984 12.1331 20.5421C12.0232 21.4231 12.2058 22.3618 12.6228 23.0604C12.3242 22.7135 12.1417 22.2128 12.0613 21.6954C11.9809 21.1782 11.996 20.6423 12.043 20.1178C11.8176 20.2266 11.647 20.4929 11.5639 20.793C11.4808 21.0932 11.4775 21.4241 11.5137 21.7404C11.5744 22.2695 11.7448 22.7754 12.0009 23.1872C11.722 22.9051 11.5369 22.4769 11.4534 22.0233C11.37 21.5697 11.3828 21.0917 11.4492 20.6331C11.3215 20.5899 11.197 20.7069 11.0964 20.8204C10.8461 21.103 10.6101 21.4075 10.3741 21.7118C10.0659 22.1093 9.75788 22.5068 9.41836 22.8549C9.46823 22.8433 9.51853 22.8423 9.56792 22.8591C9.61787 22.8762 9.65993 22.91 9.70121 22.9431L9.7074 22.9481C10.4142 23.5148 11.3307 23.8128 12.2352 23.77C12.476 23.7586 12.7202 23.7226 12.9366 23.6162C12.9915 23.5892 13.0819 23.5736 13.0925 23.634C13.0941 23.6431 13.085 23.6537 13.0666 23.6654C13.5991 23.519 14.1116 23.2996 14.584 23.0135C14.7006 22.9429 14.8359 22.8653 14.9648 22.9093C15.0148 22.9263 15.0569 22.9602 15.0981 22.9933L15.1043 22.9983C15.7298 23.4998 16.5197 23.7909 17.32 23.8215L17.3213 23.8212L17.3231 23.8208L17.327 23.8203C17.651 23.8022 17.9735 23.7572 18.2902 23.6866C18.2989 23.6827 18.3076 23.6787 18.3163 23.6747C18.322 23.6719 18.3278 23.6692 18.3335 23.6664C18.3703 23.6482 18.4231 23.6353 18.4571 23.6469C19.0325 23.5013 19.5866 23.2709 20.0944 22.9633C20.211 22.8927 20.3464 22.8152 20.4753 22.8591C20.5252 22.8762 20.5673 22.91 20.6086 22.9431L20.6148 22.9481C21.3215 23.5148 22.2381 23.8128 23.1425 23.77C23.3833 23.7586 23.6276 23.7226 23.8439 23.6162C23.8989 23.5892 23.9892 23.5736 23.9998 23.634C24.0161 23.727 22.918 23.9773 22.2703 23.8616C21.8547 23.7874 21.5591 23.7035 21.2677 23.6207C21.105 23.5745 20.9436 23.5287 20.7632 23.4852C20.643 23.4561 20.5213 23.4293 20.3977 23.4273C20.2348 23.4246 20.0745 23.465 19.9166 23.5052L19.0266 23.7313C18.674 23.821 18.3142 23.911 17.9533 23.9401C17.562 24.0087 17.1531 23.9824 16.7599 23.9117C16.4375 23.8538 16.1214 23.7672 15.8053 23.6807C15.6216 23.6303 15.4378 23.58 15.2527 23.5353C15.1326 23.5062 15.0109 23.4795 14.8873 23.4774C14.7244 23.4747 14.5641 23.5152 14.4061 23.5553L13.5162 23.7815C12.9795 23.9179 12.4261 24.0553 11.8778 23.9773C11.8474 23.973 11.8142 23.9663 11.795 23.9422C11.7839 23.9283 11.7826 23.9071 11.7894 23.8913C11.6377 23.8931 11.4915 23.8845 11.363 23.8616C10.9473 23.7874 10.6518 23.7035 10.3603 23.6207C10.1977 23.5745 10.0362 23.5287 9.85583 23.4852C9.73569 23.4561 9.61395 23.4293 9.49037 23.4273C9.32743 23.4246 9.16719 23.465 9.00922 23.5052L8.23759 23.7013C8.04676 23.7791 7.85139 23.8292 7.65379 23.8438C7.45223 23.888 7.24928 23.9237 7.04597 23.9401C6.65462 24.0087 6.24579 23.9824 5.85252 23.9117C5.53013 23.8538 5.21406 23.7673 4.89795 23.6807C4.7143 23.6304 4.53035 23.58 4.34541 23.5353C4.22527 23.5062 4.10352 23.4795 3.97995 23.4774C3.81699 23.4747 3.65676 23.5152 3.49881 23.5553L2.60887 23.7815C2.07215 23.9179 1.5187 24.0553 0.970483 23.9773C0.940049 23.973 0.906803 23.9663 0.887667 23.9422C0.868535 23.9181 0.8785 23.8722 0.909191 23.8705C1.88294 23.8159 2.84222 23.5189 3.67666 23.0135C3.79318 22.9429 3.92857 22.8653 4.05748 22.9093C4.10745 22.9263 4.14952 22.9602 4.19078 22.9933L4.19699 22.9983C4.82249 23.4998 5.61234 23.7909 6.4127 23.8215L6.41383 23.8212L6.41501 23.821L6.4171 23.8206L6.41963 23.8203C6.74368 23.8022 7.06611 23.7572 7.38288 23.6866C7.39744 23.6801 7.41187 23.6734 7.42617 23.6664C7.463 23.6482 7.5157 23.6353 7.5497 23.6469C7.81198 23.5806 8.06982 23.4966 8.32089 23.3957C8.35189 23.3764 8.38266 23.3564 8.41317 23.3355C8.90932 22.9962 9.31191 22.4548 9.66229 21.8761C9.82035 21.615 9.9696 21.3446 10.1188 21.0743C10.3004 20.7454 10.4819 20.4167 10.6792 20.1046C11.0388 19.5361 11.4606 19.0162 11.9721 18.7202C12.4836 18.4242 13.0968 18.3773 13.5887 18.7277C13.7225 18.823 13.8465 18.9472 13.9408 19.1058C14.2057 19.5514 14.1931 20.2066 14.0155 20.7237C13.9741 20.6537 13.9395 20.5772 13.9049 20.5006C13.8743 20.4328 13.8436 20.3649 13.8081 20.3015C13.7326 20.1667 13.6253 20.0477 13.4993 20.0381C13.3215 20.0247 13.176 20.2303 13.0979 20.4439C12.881 21.0372 13.0083 21.8188 13.3901 22.2385C13.0899 22.1244 12.9631 21.653 12.9208 21.2404C12.8727 20.7719 12.8849 20.2547 13.1025 19.8814C12.9476 19.7866 12.7547 19.8833 12.6461 20.0585C12.5375 20.2337 12.499 20.4683 12.4888 20.6953ZM13.9923 20.3553C14.0391 20.1918 14.0656 20.0128 14.0401 19.8411C14.018 19.6915 13.9578 19.5562 13.886 19.4376C13.5728 18.9197 13.035 18.7007 12.54 18.7828C12.045 18.8648 11.5922 19.214 11.2211 19.6586C10.8511 20.1019 10.5525 20.639 10.2562 21.1719L10.2535 21.1768C9.9563 21.7114 9.65575 22.2495 9.28279 22.6913C9.29618 22.7341 9.34465 22.7123 9.37215 22.6839C9.68975 22.3568 9.97261 21.9766 10.2556 21.5961C10.4447 21.3418 10.634 21.0874 10.8337 20.8487C11.3323 20.2528 11.9305 19.7393 12.5983 19.6768C12.8055 19.6575 13.0136 19.6822 13.2196 19.7176C13.3438 19.7389 13.4691 19.7646 13.5848 19.8287C13.7636 19.928 13.9123 20.1201 13.9923 20.3553Z" fill="#00160A"/>
<path fill-rule="evenodd" clip-rule="evenodd" d="M12.9969 16.2818C12.9322 16.515 12.8316 16.6963 12.7074 16.845C12.5211 17.0682 12.3094 17.1532 12.0756 17.039C11.9305 16.968 11.7876 16.8939 11.6711 16.7284C11.5282 16.5254 11.4781 16.2818 11.4865 16.0026C11.4897 15.8946 11.4891 15.7767 11.5181 15.682C11.5876 15.455 11.6619 15.2292 11.8109 15.081C11.9888 14.9041 12.1775 14.7847 12.3958 14.7934C12.6828 14.8049 12.8953 15.0028 13.0317 15.3718C13.1042 15.5683 13.0823 15.7813 13.0516 15.9894C13.0376 16.0843 13.0171 16.1772 12.9969 16.2818ZM11.6161 15.9444C11.6243 16.0864 11.6102 16.2418 11.6449 16.3679C11.7429 16.7239 11.9594 16.8642 12.1962 16.9104C12.4504 16.9599 12.6356 16.756 12.7841 16.4704C12.8755 16.2946 12.92 16.0881 12.9456 15.8749C12.9704 15.6689 12.9596 15.4675 12.863 15.2941C12.7852 15.1542 12.6903 15.0553 12.5699 15.0198C12.4835 14.9943 12.3913 14.9459 12.3089 14.968C11.9809 15.0556 11.6829 15.2996 11.6161 15.9444Z" fill="#FFB61D"/>
<path fill-rule="evenodd" clip-rule="evenodd" d="M15.8705 18.3952C15.8843 17.9576 16.0064 17.6107 16.2297 17.3472C16.3682 17.1837 16.5293 17.2573 16.6201 17.5024C16.7348 17.8115 16.7468 18.133 16.6524 18.4498C16.5792 18.6953 16.4656 18.898 16.2923 19.0184C16.1633 19.1082 15.9996 19.0195 15.9462 18.8375C15.9066 18.7023 15.893 18.5504 15.8705 18.3952ZM16.0054 18.1848C16.003 18.217 15.9998 18.2491 15.9984 18.2814C15.9912 18.4545 15.9947 18.6239 16.058 18.7799C16.0973 18.8769 16.1939 18.9221 16.2547 18.8604C16.4075 18.7053 16.5277 18.5089 16.573 18.2373C16.6077 18.029 16.6079 17.8177 16.5348 17.6214C16.4809 17.4766 16.3806 17.4196 16.3054 17.4923C16.2715 17.5253 16.2428 17.5708 16.2129 17.6125C16.1047 17.763 16.0556 17.9614 16.0054 18.1848Z" fill="#FFB61D"/>
<path fill-rule="evenodd" clip-rule="evenodd" d="M12.122 15.325C12.2114 15.2129 12.3996 15.2081 12.4995 15.3016C12.8242 15.6057 12.6943 16.2267 12.4671 16.4506C12.2454 16.6692 11.9507 16.4464 11.8797 16.162C11.8435 16.0173 11.858 15.8829 11.8965 15.7397C11.9431 15.5659 12.0103 15.4267 12.122 15.325ZM12.0941 16.0298C12.0821 15.9885 12.0596 15.9467 12.0605 15.906C12.0619 15.8409 12.0801 15.7769 12.0887 15.7116C12.0933 15.6768 12.0926 15.6405 12.0943 15.6048C12.0773 15.6351 12.053 15.6618 12.0446 15.6967C12.0245 15.7808 12.0101 15.8681 11.9964 15.9552C11.9653 16.153 12.1055 16.394 12.2455 16.3747C12.41 16.3521 12.5059 16.2054 12.5569 15.9783C12.6089 15.7471 12.5619 15.5471 12.4196 15.4299C12.3707 15.3895 12.2816 15.4114 12.2645 15.4798C12.2328 15.6066 12.2121 15.7394 12.183 15.8678C12.1673 15.9376 12.1971 16.0596 12.0941 16.0298Z" fill="#FFB61D"/>
<path fill-rule="evenodd" clip-rule="evenodd" d="M16.2801 18.5724C16.1085 18.5272 16.0358 18.3387 16.0921 18.1024C16.123 17.973 16.149 17.8411 16.228 17.7508C16.2952 17.6739 16.3634 17.6698 16.4399 17.7158C16.5059 17.7554 16.5273 17.8367 16.5324 17.9258C16.5483 18.2004 16.4641 18.4941 16.3139 18.5667C16.305 18.5709 16.2947 18.5684 16.2801 18.5724ZM16.37 18.2579C16.3851 18.1964 16.4035 18.1362 16.4141 18.0731C16.4206 18.0343 16.4151 17.9911 16.4149 17.9498C16.4019 17.9768 16.3892 18.004 16.3759 18.0307C16.3659 18.0507 16.3578 18.0787 16.3442 18.0876C16.326 18.0996 16.299 18.1085 16.2839 18.0965C16.271 18.0861 16.2641 18.0442 16.2647 18.0168C16.2652 17.9948 16.2831 17.9749 16.2895 17.9518C16.295 17.9318 16.2952 17.9086 16.2978 17.8868C16.2841 17.8982 16.2621 17.9053 16.2582 17.9218C16.2394 18.0017 16.2255 18.0843 16.2096 18.1658C16.1929 18.2517 16.1866 18.3524 16.2439 18.3924C16.2989 18.4309 16.3329 18.3397 16.37 18.2579Z" fill="#FFB61D"/>
<path fill-rule="evenodd" clip-rule="evenodd" d="M23.8755 5.34362C23.778 5.33946 23.7681 5.32392 23.7674 5.15841C23.7652 5.14376 23.7622 5.13103 23.7594 5.1195C23.7555 5.10328 23.7521 5.08939 23.7527 5.07584C23.7562 4.9824 23.7092 4.9828 23.6761 5.00169C23.656 5.01317 23.6395 5.07487 23.6385 5.11489C23.6378 5.14725 23.6425 5.17978 23.6472 5.21241C23.6513 5.24069 23.6553 5.26908 23.6559 5.29746C23.6563 5.31996 23.6361 5.35464 23.6201 5.36372C23.6039 5.37295 23.5843 5.37036 23.5652 5.36785C23.5603 5.36721 23.5555 5.36658 23.5508 5.36614C23.5076 5.36216 23.4576 5.36737 23.46 5.44235C23.4609 5.47307 23.521 5.5266 23.5519 5.52333C23.6421 5.51382 23.6937 5.55295 23.7161 5.68945C23.7204 5.71569 23.743 5.73536 23.7655 5.75504C23.7759 5.76407 23.7862 5.77309 23.7948 5.78276C23.7985 5.76917 23.8037 5.75498 23.8089 5.74079C23.8202 5.70983 23.8316 5.67884 23.8271 5.65421C23.8054 5.53582 23.8408 5.50941 23.9098 5.50248C23.9278 5.50068 23.9451 5.48402 23.9625 5.46737C23.9704 5.45978 23.9783 5.45219 23.9862 5.44601C23.98 5.43692 23.9739 5.42756 23.9678 5.4182L23.9677 5.4181L23.9676 5.41789C23.9523 5.39445 23.937 5.37101 23.9196 5.35163C23.9117 5.34284 23.8988 5.34321 23.8864 5.34356C23.8827 5.34367 23.879 5.34377 23.8755 5.34362ZM3.95503 5.33992C3.95471 5.33691 3.95424 5.33279 3.95152 5.32606C3.86789 5.27309 3.83305 5.29908 3.83114 5.41331C3.83003 5.47954 3.81441 5.51048 3.76935 5.53281C3.73793 5.54838 3.69487 5.60499 3.69448 5.64408C3.69385 5.70721 3.74079 5.72236 3.7826 5.71331C3.83606 5.70175 3.84725 5.74257 3.84718 5.81292C3.84712 5.88663 3.8494 5.96371 3.8647 6.0325C3.86972 6.0551 3.89014 6.07022 3.91057 6.08529C3.91981 6.09212 3.92907 6.09895 3.93689 6.10649C3.9403 6.09685 3.94399 6.08733 3.94769 6.07776C3.95629 6.05551 3.9649 6.03326 3.97003 6.00938C3.97366 5.99244 3.97275 5.97341 3.97184 5.95437C3.97145 5.9459 3.97105 5.93744 3.97105 5.92909C3.97105 5.71511 3.97141 5.71494 4.09713 5.64941L4.10002 5.64791C4.11494 5.64013 4.12777 5.62367 4.14063 5.60721C4.14656 5.59961 4.15248 5.59201 4.15863 5.58526C4.15216 5.57697 4.14596 5.56756 4.13977 5.55815C4.12603 5.53731 4.11229 5.51647 4.09567 5.50775C4.05032 5.484 3.97082 5.40051 3.95554 5.34331C3.95527 5.34231 3.95515 5.34121 3.95503 5.33992ZM21.3067 9.51093C21.3467 9.51093 21.364 9.71577 21.3715 9.80406L21.3715 9.80418C21.3728 9.81977 21.3739 9.83168 21.3746 9.83822C21.3767 9.85615 21.4149 9.85679 21.4531 9.85749C21.4913 9.85814 21.5294 9.85884 21.5318 9.87659C21.5342 9.89399 21.4962 9.92424 21.4604 9.95268C21.4303 9.97674 21.4016 9.99951 21.4001 10.0122C21.3989 10.0226 21.3979 10.0375 21.3968 10.0549V10.055C21.3915 10.1335 21.3827 10.2635 21.3347 10.2635C21.3265 10.2635 21.3176 10.2308 21.3062 10.1889C21.2861 10.1148 21.2582 10.0122 21.2129 10.0122C21.1999 10.0122 21.0067 10.002 21.004 9.9789C21.0014 9.95601 21.1849 9.87028 21.2129 9.85819C21.2377 9.84745 21.2538 9.74789 21.2683 9.65814C21.2807 9.58088 21.292 9.51093 21.3067 9.51093ZM1.75323 10.51C1.76214 10.5702 1.77132 10.6322 1.84518 10.6157C1.86081 10.5859 1.87555 10.556 1.87518 10.5265C1.87482 10.4969 1.87103 10.467 1.86724 10.4371C1.85787 10.3631 1.84851 10.2893 1.89101 10.22C1.89404 10.215 1.88412 10.1857 1.87604 10.174C1.82569 10.1018 1.80896 10.0162 1.81007 9.91244C1.81036 9.88535 1.76546 9.84792 1.73715 9.8346C1.72775 9.83022 1.69704 9.88295 1.69093 9.91566C1.68304 9.95782 1.68065 10.0126 1.69259 10.0504C1.71525 10.1222 1.68733 10.1345 1.65907 10.1468C1.65493 10.1486 1.65078 10.1504 1.64678 10.1524C1.63733 10.1572 1.62707 10.1594 1.61689 10.1616C1.60238 10.1648 1.58803 10.1679 1.5764 10.1782C1.54857 10.2028 1.50161 10.2564 1.50561 10.27C1.52112 10.3225 1.55056 10.3544 1.60046 10.3238C1.63325 10.3037 1.67877 10.3058 1.71266 10.3232C1.72061 10.3273 1.72278 10.3501 1.72523 10.3757C1.72746 10.3991 1.72992 10.4249 1.73723 10.4409C1.74575 10.4596 1.74946 10.4846 1.75323 10.51Z" fill="#00160A"/>
</g>
<defs>
<clipPath id="clip0_566_2">
<rect width="24" height="24" fill="white"/>
</clipPath>
</defs>
</svg>
